<?xml version="1.0" encoding="utf-8"?>
<!-- Generator: Adobe Illustrator 16.0.0, SVG Export Plug-In . SVG Version: 6.00 Build 0)  -->
<!DOCTYPE svg PUBLIC "-//W3C//DTD SVG 1.1//EN" "http://www.w3.org/Graphics/SVG/1.1/DTD/svg11.dtd">
<svg version="1.1" xmlns="http://www.w3.org/2000/svg" xmlns:xlink="http://www.w3.org/1999/xlink" x="0px" y="0px" width="800px"
	 height="800px" viewBox="0 0 800 800" enable-background="new 0 0 800 800" xml:space="preserve">
<g id="Layer_1">
	<g>
		<defs>
			<rect id="SVGID_1_" width="800" height="800"/>
		</defs>
		<clipPath id="SVGID_2_">
			<use xlink:href="#SVGID_1_"  overflow="visible"/>
		</clipPath>
		<rect clip-path="url(#SVGID_2_)" fill="#46C7EF" width="800" height="800"/>
		<g clip-path="url(#SVGID_2_)">
			<polygon fill="#11B7D2" points="-88.436,1331.256 -91.177,1270.553 -148.421,1250.18 -151.163,1189.479 -208.407,1169.105 
				-211.148,1108.406 -268.393,1088.031 -271.133,1027.332 -328.379,1006.957 -331.119,946.256 -388.364,925.883 -391.104,865.182 
				-448.349,844.809 -451.09,784.107 -502.967,765.645 -497.284,749.676 -434.671,771.961 -431.931,832.66 -374.686,853.035 
				-371.945,913.734 -314.701,934.109 -311.96,994.809 -254.714,1015.184 -251.974,1075.885 -194.729,1096.258 -191.989,1156.957 
				-134.744,1177.332 -132.003,1238.033 -74.758,1258.406 -72.018,1319.107 -14.772,1339.48 -11.775,1405.873 -28.708,1406.637 
				-31.191,1351.629 			"/>
			<polygon fill="#11B7D2" points="-53.932,1305.725 -56.672,1245.025 -113.917,1224.652 -116.658,1163.951 -173.903,1143.576 
				-176.644,1082.877 -233.889,1062.502 -236.629,1001.803 -293.874,981.428 -296.615,920.729 -353.859,900.354 -356.6,839.652 
				-413.845,819.279 -416.585,758.578 -468.462,740.115 -462.779,724.146 -400.167,746.432 -397.426,807.131 -340.182,827.506 
				-337.441,888.207 -280.196,908.58 -277.456,969.279 -220.21,989.654 -217.47,1050.354 -160.225,1070.729 -157.485,1131.43 
				-100.24,1151.803 -97.499,1212.504 -40.254,1232.879 -37.513,1293.578 19.732,1313.951 22.729,1380.342 5.798,1381.107 
				3.314,1326.1 			"/>
			<polygon fill="#11B7D2" points="-19.426,1280.197 -22.167,1219.494 -79.412,1199.121 -82.153,1138.42 -139.398,1118.047 
				-142.139,1057.348 -199.383,1036.973 -202.124,976.271 -259.369,955.898 -262.11,895.197 -319.354,874.824 -322.095,814.123 
				-379.34,793.75 -382.08,733.049 -433.958,714.586 -428.273,698.617 -365.661,720.9 -362.92,781.602 -305.676,801.975 
				-302.935,862.676 -245.69,883.049 -242.95,943.75 -185.705,964.125 -182.964,1024.824 -125.719,1045.197 -122.979,1105.898 
				-65.734,1126.273 -62.993,1186.973 -5.749,1207.348 -3.008,1268.047 54.238,1288.42 57.235,1354.813 40.301,1355.578 
				37.818,1300.57 			"/>
			<polygon fill="#11B7D2" points="15.08,1254.666 12.339,1193.965 -44.906,1173.592 -47.647,1112.891 -104.892,1092.516 
				-107.632,1031.816 -164.877,1011.443 -167.618,950.742 -224.863,930.367 -227.604,869.668 -284.849,849.293 -287.589,788.592 
				-344.834,768.219 -347.575,707.52 -399.453,689.055 -393.769,673.086 -331.156,695.371 -328.416,756.07 -271.171,776.445 
				-268.43,837.146 -211.186,857.52 -208.445,918.219 -151.2,938.594 -148.458,999.295 -91.214,1019.668 -88.473,1080.369 
				-31.229,1100.742 -28.488,1161.443 28.757,1181.818 31.498,1242.518 88.743,1262.893 91.741,1329.285 74.807,1330.049 
				72.324,1275.039 			"/>
			<polygon fill="#11B7D2" points="49.583,1229.135 46.843,1168.436 -10.402,1148.063 -13.143,1087.361 -70.388,1066.988 
				-73.128,1006.287 -130.373,985.912 -133.114,925.213 -190.359,904.838 -193.1,844.139 -250.344,823.764 -253.085,763.064 
				-310.33,742.689 -313.07,681.99 -364.947,663.525 -359.265,647.557 -296.652,669.842 -293.911,730.543 -236.667,750.916 
				-233.926,811.617 -176.681,831.99 -173.94,892.691 -116.695,913.064 -113.955,973.766 -56.71,994.139 -53.969,1054.84 
				3.275,1075.215 6.017,1135.914 63.262,1156.289 66.002,1216.988 123.247,1237.361 126.244,1303.754 109.313,1304.518 
				106.829,1249.512 			"/>
			<polygon fill="#11B7D2" points="84.089,1203.607 81.349,1142.906 24.103,1122.533 21.362,1061.83 -35.883,1041.457 
				-38.624,980.758 -95.868,960.383 -98.609,899.684 -155.854,879.309 -158.595,818.609 -215.839,798.234 -218.58,737.533 
				-275.825,717.16 -278.565,656.459 -330.442,637.996 -324.759,622.027 -262.146,644.313 -259.406,705.012 -202.161,725.385 
				-199.42,786.086 -142.176,806.459 -139.435,867.16 -82.189,887.535 -79.449,948.236 -22.204,968.609 -19.464,1029.311 
				37.781,1049.684 40.523,1110.383 97.767,1130.758 100.507,1191.459 157.753,1211.832 160.75,1278.225 143.816,1278.988 
				141.333,1223.98 			"/>
			<polygon fill="#11B7D2" points="118.594,1178.076 115.852,1117.377 58.608,1097.002 55.867,1036.303 -1.378,1015.928 
				-4.119,955.229 -61.363,934.854 -64.104,874.154 -121.349,853.779 -124.09,793.078 -181.334,772.705 -184.075,712.004 
				-241.32,691.631 -244.061,630.93 -295.938,612.467 -290.254,596.498 -227.642,618.783 -224.901,679.482 -167.656,699.855 
				-164.916,760.557 -107.671,780.93 -104.931,841.631 -47.685,862.006 -44.944,922.707 12.3,943.08 15.041,1003.779 
				72.286,1024.154 75.026,1084.855 132.271,1105.229 135.013,1165.93 192.257,1186.303 195.254,1252.695 178.321,1253.459 
				175.838,1198.451 			"/>
			<polygon fill="#11B7D2" points="153.099,1152.547 150.357,1091.848 93.113,1071.473 90.371,1010.771 33.127,990.398 
				30.387,929.697 -26.858,909.324 -29.599,848.625 -86.844,828.25 -89.585,767.549 -146.829,747.176 -149.57,686.475 
				-206.814,666.102 -209.556,605.4 -261.432,586.936 -255.749,570.969 -193.137,593.252 -190.396,653.953 -133.151,674.326 
				-130.411,735.027 -73.166,755.4 -70.425,816.102 -13.18,836.477 -10.439,897.176 46.805,917.551 49.546,978.25 106.791,998.623 
				109.532,1059.324 166.776,1079.697 169.517,1140.4 226.762,1160.773 229.76,1227.164 212.827,1227.93 210.344,1172.922 			"/>
			<polygon fill="#11B7D2" points="187.604,1127.018 184.862,1066.316 127.617,1045.943 124.877,985.242 67.632,964.869 
				64.891,904.168 7.647,883.795 4.906,823.096 -52.339,802.719 -55.081,742.02 -112.325,721.645 -115.066,660.945 -172.31,640.57 
				-175.051,579.871 -226.928,561.406 -221.245,545.439 -158.632,567.723 -155.891,628.424 -98.646,648.797 -95.905,709.496 
				-38.661,729.871 -35.92,790.57 21.325,810.945 24.066,871.646 81.311,892.02 84.052,952.721 141.295,973.094 144.037,1033.795 
				201.281,1054.17 204.021,1114.869 261.268,1135.244 264.265,1201.637 247.332,1202.398 244.848,1147.393 			"/>
			<polygon fill="#11B7D2" points="222.108,1101.488 219.368,1040.787 162.123,1020.414 159.383,959.713 102.137,939.338 
				99.396,878.639 42.151,858.266 39.411,797.564 -17.834,777.189 -20.575,716.49 -77.819,696.115 -80.56,635.416 -137.805,615.041 
				-140.545,554.342 -192.422,535.877 -186.739,519.908 -124.127,542.193 -121.386,602.893 -64.142,623.268 -61.4,683.967 
				-4.156,704.342 -1.415,765.041 55.83,785.416 58.57,846.117 115.815,866.49 118.557,927.191 175.801,947.564 178.542,1008.266 
				235.787,1028.639 238.527,1089.34 295.772,1109.715 298.77,1176.105 281.837,1176.871 279.353,1121.861 			"/>
			<polygon fill="#11B7D2" points="256.613,1075.957 253.872,1015.258 196.627,994.885 193.886,934.184 136.643,913.809 
				133.901,853.109 76.656,832.736 73.916,772.035 16.67,751.66 13.93,690.959 -43.315,670.586 -46.055,609.885 -103.3,589.512 
				-106.041,528.813 -157.918,510.348 -152.234,494.379 -89.622,516.664 -86.881,577.363 -29.636,597.738 -26.896,658.438 
				30.349,678.813 33.09,739.512 90.335,759.887 93.076,820.588 150.32,840.961 153.061,901.662 210.306,922.035 213.047,982.734 
				270.291,1003.109 273.033,1063.811 330.276,1084.184 333.274,1150.576 316.343,1151.34 313.858,1096.332 			"/>
			<polygon fill="#11B7D2" points="291.118,1050.43 288.378,989.729 231.132,969.354 228.392,908.652 171.147,888.279 
				168.406,827.58 111.162,807.205 108.421,746.504 51.176,726.131 48.435,665.43 -8.81,645.057 -11.55,584.355 -68.795,563.982 
				-71.536,503.281 -123.414,484.818 -117.729,468.85 -55.117,491.135 -52.376,551.834 4.868,572.209 7.609,632.908 64.854,653.283 
				67.595,713.982 124.839,734.357 127.581,795.057 184.824,815.432 187.566,876.131 244.81,896.506 247.553,957.205 
				304.796,977.58 307.537,1038.279 364.782,1058.654 367.78,1125.047 350.846,1125.811 348.363,1070.803 			"/>
			<polygon fill="#11B7D2" points="325.623,1024.898 322.882,964.199 265.638,943.824 262.896,883.123 205.651,862.75 
				202.911,802.049 145.666,781.676 142.926,720.975 85.682,700.602 82.939,639.9 25.695,619.527 22.954,558.826 -34.29,538.453 
				-37.031,477.752 -88.908,459.289 -83.225,443.32 -20.612,465.604 -17.871,526.305 39.374,546.678 42.114,607.379 99.358,627.752 
				102.1,688.453 159.345,708.826 162.086,769.527 219.33,789.9 222.07,850.602 279.315,870.977 282.056,931.676 339.302,952.051 
				342.042,1012.75 399.287,1033.125 402.283,1099.518 385.352,1100.281 382.868,1045.273 			"/>
			<polygon fill="#11B7D2" points="360.128,999.369 357.388,938.668 300.143,918.295 297.401,857.594 240.157,837.221 
				237.417,776.52 180.171,756.145 177.431,695.445 120.186,675.07 117.444,614.371 60.2,593.998 57.46,533.297 0.215,512.922 
				-2.526,452.223 -54.404,433.76 -48.719,417.791 13.893,440.074 16.634,500.775 73.879,521.148 76.619,581.85 133.864,602.223 
				136.604,662.924 193.85,683.297 196.59,743.998 253.835,764.371 256.575,825.072 313.82,845.445 316.562,906.146 
				373.807,926.521 376.547,987.221 433.792,1007.596 436.789,1073.986 419.856,1074.752 417.373,1019.744 			"/>
			<polygon fill="#11B7D2" points="394.634,973.84 391.892,913.139 334.647,892.766 331.906,832.064 274.662,811.691 271.92,750.99 
				214.677,730.617 211.936,669.916 154.69,649.541 151.95,588.842 94.705,568.467 91.964,507.768 34.72,487.393 31.979,426.693 
				-19.898,408.229 -14.214,392.259 48.398,414.545 51.139,475.246 108.384,495.619 111.124,556.32 168.369,576.693 
				171.109,637.393 228.354,657.768 231.095,718.469 288.341,738.842 291.081,799.541 348.325,819.916 351.066,880.617 
				408.311,900.99 411.052,961.691 468.297,982.066 471.295,1048.457 454.36,1049.223 451.877,994.213 			"/>
			<polygon fill="#11B7D2" points="429.137,948.311 426.396,887.609 369.153,867.236 366.41,806.535 309.167,786.16 
				306.426,725.461 249.182,705.086 246.439,644.387 189.195,624.012 186.454,563.313 129.21,542.938 126.469,482.238 
				69.225,461.863 66.483,401.164 14.606,382.699 20.291,366.73 82.903,389.015 85.644,449.715 142.889,470.09 145.629,530.789 
				202.874,551.164 205.614,611.863 262.859,632.238 265.601,692.939 322.844,713.313 325.586,774.012 382.83,794.387 
				385.571,855.088 442.816,875.461 445.557,936.162 502.802,956.535 505.8,1022.928 488.866,1023.691 486.383,968.684 			"/>
			<polygon fill="#11B7D2" points="463.643,922.779 460.902,862.08 403.657,841.705 400.916,781.004 343.672,760.631 
				340.932,699.932 283.686,679.557 280.945,618.857 223.7,598.482 220.959,537.781 163.716,517.408 160.975,456.707 
				103.729,436.334 100.989,375.632 49.112,357.169 54.795,341.2 117.408,363.486 120.149,424.186 177.393,444.561 180.135,505.26 
				237.379,525.635 240.12,586.334 297.364,606.709 300.106,667.408 357.35,687.783 360.09,748.482 417.335,768.855 
				420.076,829.557 477.321,849.932 480.063,910.633 537.307,931.006 540.304,997.398 523.371,998.162 520.889,943.154 			"/>
			<polygon fill="#11B7D2" points="498.148,897.25 495.407,836.551 438.162,816.176 435.422,755.475 378.176,735.102 375.436,674.4 
				318.191,654.027 315.451,593.326 258.205,572.953 255.465,512.252 198.219,491.879 195.479,431.178 138.234,410.805 
				135.494,350.104 83.616,331.64 89.3,315.671 151.912,337.955 154.653,398.656 211.898,419.029 214.639,479.73 271.883,500.104 
				274.624,560.805 331.869,581.18 334.609,641.879 391.855,662.254 394.596,722.953 451.84,743.326 454.581,804.027 
				511.825,824.402 514.566,885.102 571.812,905.477 574.809,971.869 557.876,972.633 555.393,917.625 			"/>
			<polygon fill="#11B7D2" points="532.653,871.721 529.912,811.02 472.668,790.646 469.926,729.945 412.682,709.572 
				409.94,648.871 352.696,628.498 349.955,567.797 292.71,547.422 289.97,486.723 232.725,466.35 229.984,405.648 172.739,385.275 
				169.999,324.574 118.121,306.109 123.806,290.142 186.418,312.426 189.158,373.126 246.403,393.5 249.145,454.201 
				306.389,474.574 309.129,535.275 366.375,555.648 369.115,616.35 426.36,636.723 429.101,697.424 486.345,717.797 
				489.086,778.498 546.331,798.873 549.072,859.572 606.316,879.947 609.314,946.34 592.382,947.104 589.897,892.096 			"/>
			<polygon fill="#11B7D2" points="567.157,846.191 564.417,785.49 507.171,765.117 504.431,704.416 447.187,684.041 
				444.445,623.342 387.201,602.969 384.46,542.268 327.215,521.893 324.474,461.193 267.23,440.82 264.489,380.119 
				207.244,359.746 204.503,299.044 152.626,280.58 158.31,264.612 220.923,286.896 223.664,347.597 280.908,367.97 
				283.648,428.672 340.893,449.045 343.635,509.746 400.879,530.119 403.62,590.82 460.864,611.193 463.605,671.895 
				520.85,692.268 523.592,752.969 580.836,773.342 583.576,834.043 640.821,854.418 643.819,920.809 626.886,921.572 
				624.402,866.566 			"/>
			<polygon fill="#11B7D2" points="601.663,820.662 598.922,759.961 541.677,739.586 538.937,678.887 481.691,658.512 
				478.95,597.813 421.706,577.438 418.966,516.738 361.721,496.363 358.979,435.664 301.735,415.289 298.993,354.589 
				241.75,334.214 239.009,273.515 187.132,255.05 192.815,239.083 255.428,261.366 258.169,322.066 315.413,342.44 
				318.154,403.141 375.398,423.516 378.14,484.215 435.384,504.59 438.124,565.289 495.37,585.664 498.11,646.363 555.355,666.738 
				558.096,727.438 615.341,747.813 618.081,808.514 675.327,828.887 678.323,895.279 661.392,896.043 658.908,841.035 			"/>
			<polygon fill="#11B7D2" points="636.168,795.131 633.426,734.432 576.182,714.057 573.441,653.355 516.196,632.982 
				513.456,572.283 456.211,551.908 453.47,491.209 396.226,470.834 393.484,410.135 336.239,389.759 333.499,329.06 
				276.254,308.685 273.514,247.985 221.637,229.521 227.319,213.553 289.933,235.837 292.673,296.537 349.918,316.911 
				352.658,377.611 409.903,397.984 412.644,458.686 469.89,479.061 472.63,539.76 529.875,560.135 532.615,620.834 589.86,641.209 
				592.601,701.908 649.847,722.283 652.587,782.984 709.831,803.357 712.828,869.75 695.896,870.514 693.412,815.506 			"/>
			<polygon fill="#11B7D2" points="670.673,769.602 667.932,708.902 610.688,688.527 607.945,627.826 550.702,607.453 
				547.96,546.752 490.716,526.379 487.975,465.678 430.729,445.305 427.989,384.603 370.745,364.23 368.005,303.529 
				310.759,283.155 308.019,222.456 256.141,203.991 261.825,188.023 324.438,210.307 327.178,271.008 384.423,291.381 
				387.163,352.081 444.409,372.455 447.148,433.156 504.395,453.531 507.135,514.23 564.38,534.604 567.12,595.305 
				624.364,615.678 627.105,676.379 684.351,696.754 687.092,757.453 744.336,777.828 747.334,844.221 730.401,844.984 
				727.917,789.977 			"/>
			<polygon fill="#11B7D2" points="705.177,744.072 702.437,683.373 645.191,662.998 642.45,602.297 585.206,581.924 
				582.465,521.223 525.222,500.85 522.479,440.148 465.235,419.775 462.494,359.074 405.25,338.7 402.508,278 345.265,257.626 
				342.523,196.926 290.646,178.461 296.33,162.494 358.942,184.777 361.683,245.478 418.928,265.852 421.669,326.552 
				478.912,346.925 481.653,407.627 538.898,428.002 541.64,488.701 598.884,509.074 601.625,569.775 658.869,590.148 
				661.61,650.85 718.855,671.223 721.597,731.924 778.842,752.299 781.839,818.689 764.906,819.455 762.422,764.445 			"/>
			<polygon fill="#11B7D2" points="739.683,718.543 736.942,657.842 679.696,637.469 676.956,576.768 619.711,556.393 
				616.971,495.693 559.726,475.32 556.985,414.619 499.741,394.244 497,333.544 439.755,313.17 437.014,252.47 379.77,232.096 
				377.028,171.396 325.151,152.932 330.835,136.964 393.447,159.248 396.188,219.948 453.432,240.322 456.174,301.022 
				513.418,321.396 516.159,382.095 573.404,402.471 576.145,463.172 633.389,483.545 636.13,544.246 693.375,564.619 
				696.115,625.32 753.36,645.693 756.102,706.395 813.347,726.77 816.344,793.16 799.411,793.924 796.927,738.916 			"/>
			<polygon fill="#11B7D2" points="774.188,693.014 771.446,632.313 714.202,611.939 711.46,551.238 654.216,530.863 
				651.476,470.164 594.23,449.789 591.49,389.089 534.244,368.714 531.504,308.015 474.26,287.641 471.52,226.94 414.273,206.567 
				411.533,145.866 359.656,127.402 365.339,111.434 427.952,133.718 430.693,194.418 487.938,214.792 490.678,275.492 
				547.923,295.866 550.664,356.566 607.909,376.941 610.649,437.643 667.895,458.016 670.635,518.715 727.88,539.09 
				730.621,599.791 787.866,620.164 790.606,680.865 847.851,701.238 850.849,767.631 833.916,768.395 831.432,713.387 			"/>
			<polygon fill="#11B7D2" points="808.692,667.484 805.951,606.783 748.706,586.408 745.965,525.709 688.721,505.334 
				685.979,444.635 628.735,424.26 625.994,363.56 568.75,343.186 566.009,282.485 508.764,262.111 506.023,201.411 
				448.779,181.037 446.039,120.337 394.161,101.873 399.845,85.904 462.457,108.189 465.197,168.889 522.442,189.263 
				525.184,249.963 582.428,270.337 585.168,331.036 642.413,351.411 645.154,412.113 702.398,432.486 705.14,493.186 
				762.384,513.561 765.126,574.262 822.37,594.635 825.111,655.334 882.355,675.709 885.354,742.102 868.421,742.865 
				865.937,687.857 			"/>
		</g>
		<polygon clip-path="url(#SVGID_2_)" fill="#E27AB1" points="851.313,1184.508 -200.508,999.313 1036.508,132.688 		"/>
		<polygon clip-path="url(#SVGID_2_)" fill="#8186C1" points="-452.471,1148.771 -267.275,96.951 599.35,1333.967 		"/>
		<path clip-path="url(#SVGID_2_)" fill="#E8D654" d="M659.94,47.043c-33.198,0-60.11,26.912-60.11,60.11
			c0,33.198,26.912,60.11,60.11,60.11s60.109-26.912,60.109-60.11C720.05,73.955,693.139,47.043,659.94,47.043z M659.94,142.54
			c-19.544,0-35.388-15.843-35.388-35.387c0-19.543,15.844-35.387,35.388-35.387c19.543,0,35.387,15.844,35.387,35.387
			C695.327,126.697,679.483,142.54,659.94,142.54z"/>
		<path clip-path="url(#SVGID_2_)" fill="#E8D654" d="M659.94,200.227c-33.198,0-60.11,26.912-60.11,60.11
			c0,33.198,26.912,60.11,60.11,60.11s60.109-26.912,60.109-60.11C720.05,227.139,693.139,200.227,659.94,200.227z M659.94,295.724
			c-19.544,0-35.388-15.844-35.388-35.388c0-19.543,15.844-35.387,35.388-35.387c19.543,0,35.387,15.844,35.387,35.387
			C695.327,279.88,679.483,295.724,659.94,295.724z"/>
		<path clip-path="url(#SVGID_2_)" fill="#E8D654" d="M659.94,353.41c-33.198,0-60.11,26.912-60.11,60.11
			s26.912,60.109,60.11,60.109s60.109-26.911,60.109-60.109S693.139,353.41,659.94,353.41z M659.94,448.907
			c-19.544,0-35.388-15.843-35.388-35.387s15.844-35.388,35.388-35.388c19.543,0,35.387,15.844,35.387,35.388
			S679.483,448.907,659.94,448.907z"/>
		<path clip-path="url(#SVGID_2_)" fill="#E8D654" d="M659.94,506.594c-33.198,0-60.11,26.912-60.11,60.11
			s26.912,60.109,60.11,60.109s60.109-26.911,60.109-60.109S693.139,506.594,659.94,506.594z M659.94,602.091
			c-19.544,0-35.388-15.843-35.388-35.387s15.844-35.388,35.388-35.388c19.543,0,35.387,15.844,35.387,35.388
			S679.483,602.091,659.94,602.091z"/>
		<path clip-path="url(#SVGID_2_)" fill="#E46EAA" d="M73.439,225.718c0,89.39,58.462,165.111,139.233,191.047l44.285-101.898
			c-41.945-8.005-73.652-44.871-73.652-89.149c0-44.279,31.707-81.145,73.652-89.148l-44.285-101.9
			C131.902,60.607,73.439,136.329,73.439,225.718z"/>
		<g clip-path="url(#SVGID_2_)">
			
				<rect x="85.79" y="564.436" transform="matrix(0.7071 -0.7071 0.7071 0.7071 -401.7254 242.4209)" fill="#E8D654" stroke="#E8D654" stroke-width="4" stroke-miterlimit="10" width="11.903" height="83.32"/>
			
				<rect x="85.79" y="564.436" transform="matrix(-0.7071 -0.7071 0.7071 -0.7071 -271.9913 1099.5208)" fill="#E8D654" stroke="#E8D654" stroke-width="4" stroke-miterlimit="10" width="11.903" height="83.32"/>
		</g>
		<g clip-path="url(#SVGID_2_)">
			
				<rect x="85.79" y="675.871" transform="matrix(0.7071 -0.7071 0.7071 0.7071 -480.5009 275.0309)" fill="#E8D654" stroke="#E8D654" stroke-width="4" stroke-miterlimit="10" width="11.902" height="83.32"/>
			
				<rect x="85.79" y="675.871" transform="matrix(-0.7071 -0.7071 0.7071 -0.7071 -350.7592 1289.7733)" fill="#E8D654" stroke="#E8D654" stroke-width="4" stroke-miterlimit="10" width="11.902" height="83.32"/>
		</g>
	</g>
</g>
<g id="Layer_3" display="none">
	<g display="inline">
		<polyline fill="none" stroke="#11B7D2" stroke-width="20" stroke-miterlimit="10" points="-476,584.212 -416.5,544.212 
			-357,584.212 -297.5,544.212 -238,584.212 -178.5,544.212 -119,584.212 -59.5,544.212 0,584.212 59.5,544.212 119,584.212 
			178.5,544.212 238,584.212 297.5,544.212 357,584.212 416.5,544.212 476,584.212 		"/>
		<polyline fill="none" stroke="#11B7D2" stroke-width="20" stroke-miterlimit="10" points="-476,533.566 -416.5,493.566 
			-357,533.566 -297.5,493.566 -238,533.566 -178.5,493.566 -119,533.566 -59.5,493.566 0,533.566 59.5,493.566 119,533.566 
			178.5,493.566 238,533.566 297.5,493.566 357,533.566 416.5,493.566 476,533.566 		"/>
		<polyline fill="none" stroke="#11B7D2" stroke-width="20" stroke-miterlimit="10" points="-476,482.92 -416.5,442.92 -357,482.92 
			-297.5,442.92 -238,482.92 -178.5,442.92 -119,482.92 -59.5,442.92 0,482.92 59.5,442.92 119,482.92 178.5,442.92 238,482.92 
			297.5,442.92 357,482.92 416.5,442.92 476,482.92 		"/>
		<polyline fill="none" stroke="#11B7D2" stroke-width="20" stroke-miterlimit="10" points="-476,432.273 -416.5,392.274 
			-357,432.273 -297.5,392.274 -238,432.273 -178.5,392.274 -119,432.273 -59.5,392.274 0,432.273 59.5,392.274 119,432.273 
			178.5,392.274 238,432.273 297.5,392.274 357,432.273 416.5,392.274 476,432.273 		"/>
		<polyline fill="none" stroke="#11B7D2" stroke-width="20" stroke-miterlimit="10" points="-476,381.628 -416.5,341.628 
			-357,381.628 -297.5,341.628 -238,381.628 -178.5,341.628 -119,381.628 -59.5,341.628 0,381.628 59.5,341.628 119,381.628 
			178.5,341.628 238,381.628 297.5,341.628 357,381.628 416.5,341.628 476,381.628 		"/>
		<polyline fill="none" stroke="#11B7D2" stroke-width="20" stroke-miterlimit="10" points="-476,330.982 -416.5,290.982 
			-357,330.982 -297.5,290.982 -238,330.982 -178.5,290.982 -119,330.982 -59.5,290.982 0,330.982 59.5,290.982 119,330.982 
			178.5,290.982 238,330.982 297.5,290.982 357,330.982 416.5,290.982 476,330.982 		"/>
		<polyline fill="none" stroke="#11B7D2" stroke-width="20" stroke-miterlimit="10" points="-476,280.336 -416.5,240.336 
			-357,280.336 -297.5,240.336 -238,280.336 -178.5,240.336 -119,280.336 -59.5,240.336 0,280.336 59.5,240.336 119,280.336 
			178.5,240.336 238,280.336 297.5,240.336 357,280.336 416.5,240.336 476,280.336 		"/>
		<polyline fill="none" stroke="#11B7D2" stroke-width="20" stroke-miterlimit="10" points="-476,229.69 -416.5,189.69 -357,229.69 
			-297.5,189.69 -238,229.69 -178.5,189.69 -119,229.69 -59.5,189.69 0,229.69 59.5,189.69 119,229.69 178.5,189.69 238,229.69 
			297.5,189.69 357,229.69 416.5,189.69 476,229.69 		"/>
		<polyline fill="none" stroke="#11B7D2" stroke-width="20" stroke-miterlimit="10" points="-476,179.044 -416.5,139.044 
			-357,179.044 -297.5,139.044 -238,179.044 -178.5,139.044 -119,179.044 -59.5,139.044 0,179.044 59.5,139.044 119,179.044 
			178.5,139.044 238,179.044 297.5,139.044 357,179.044 416.5,139.044 476,179.044 		"/>
		<polyline fill="none" stroke="#11B7D2" stroke-width="20" stroke-miterlimit="10" points="-476,128.398 -416.5,88.398 
			-357,128.398 -297.5,88.398 -238,128.398 -178.5,88.398 -119,128.398 -59.5,88.398 0,128.398 59.5,88.398 119,128.398 
			178.5,88.398 238,128.398 297.5,88.398 357,128.398 416.5,88.398 476,128.398 		"/>
		<polyline fill="none" stroke="#11B7D2" stroke-width="20" stroke-miterlimit="10" points="-476,77.752 -416.5,37.752 -357,77.752 
			-297.5,37.752 -238,77.752 -178.5,37.752 -119,77.752 -59.5,37.752 0,77.752 59.5,37.752 119,77.752 178.5,37.752 238,77.752 
			297.5,37.752 357,77.752 416.5,37.752 476,77.752 		"/>
		<polyline fill="none" stroke="#11B7D2" stroke-width="20" stroke-miterlimit="10" points="-476,27.106 -416.5,-12.894 
			-357,27.106 -297.5,-12.894 -238,27.106 -178.5,-12.894 -119,27.106 -59.5,-12.894 0,27.106 59.5,-12.894 119,27.106 
			178.5,-12.894 238,27.106 297.5,-12.894 357,27.106 416.5,-12.894 476,27.106 		"/>
		<polyline fill="none" stroke="#11B7D2" stroke-width="20" stroke-miterlimit="10" points="-476,-23.54 -416.5,-63.54 -357,-23.54 
			-297.5,-63.54 -238,-23.54 -178.5,-63.54 -119,-23.54 -59.5,-63.54 0,-23.54 59.5,-63.54 119,-23.54 178.5,-63.54 238,-23.54 
			297.5,-63.54 357,-23.54 416.5,-63.54 476,-23.54 		"/>
		<polyline fill="none" stroke="#11B7D2" stroke-width="20" stroke-miterlimit="10" points="-476,-74.186 -416.5,-114.186 
			-357,-74.186 -297.5,-114.186 -238,-74.186 -178.5,-114.186 -119,-74.186 -59.5,-114.186 0,-74.186 59.5,-114.186 119,-74.186 
			178.5,-114.186 238,-74.186 297.5,-114.186 357,-74.186 416.5,-114.186 476,-74.186 		"/>
		<polyline fill="none" stroke="#11B7D2" stroke-width="20" stroke-miterlimit="10" points="-476,-124.832 -416.5,-164.832 
			-357,-124.832 -297.5,-164.832 -238,-124.832 -178.5,-164.832 -119,-124.832 -59.5,-164.832 0,-124.832 59.5,-164.832 
			119,-124.832 178.5,-164.832 238,-124.832 297.5,-164.832 357,-124.832 416.5,-164.832 476,-124.832 		"/>
		<polyline fill="none" stroke="#11B7D2" stroke-width="20" stroke-miterlimit="10" points="-476,-175.478 -416.5,-215.478 
			-357,-175.478 -297.5,-215.478 -238,-175.478 -178.5,-215.478 -119,-175.478 -59.5,-215.478 0,-175.478 59.5,-215.478 
			119,-175.478 178.5,-215.478 238,-175.478 297.5,-215.478 357,-175.478 416.5,-215.478 476,-175.478 		"/>
		<polyline fill="none" stroke="#11B7D2" stroke-width="20" stroke-miterlimit="10" points="-476,-226.124 -416.5,-266.124 
			-357,-226.124 -297.5,-266.124 -238,-226.124 -178.5,-266.124 -119,-226.124 -59.5,-266.124 0,-226.124 59.5,-266.124 
			119,-226.124 178.5,-266.124 238,-226.124 297.5,-266.124 357,-226.124 416.5,-266.124 476,-226.124 		"/>
		<polyline fill="none" stroke="#11B7D2" stroke-width="20" stroke-miterlimit="10" points="-476,-276.77 -416.5,-316.77 
			-357,-276.77 -297.5,-316.77 -238,-276.77 -178.5,-316.77 -119,-276.77 -59.5,-316.77 0,-276.77 59.5,-316.77 119,-276.77 
			178.5,-316.77 238,-276.77 297.5,-316.77 357,-276.77 416.5,-316.77 476,-276.77 		"/>
		<polyline fill="none" stroke="#11B7D2" stroke-width="20" stroke-miterlimit="10" points="-476,-327.416 -416.5,-367.416 
			-357,-327.416 -297.5,-367.416 -238,-327.416 -178.5,-367.416 -119,-327.416 -59.5,-367.416 0,-327.416 59.5,-367.416 
			119,-327.416 178.5,-367.416 238,-327.416 297.5,-367.416 357,-327.416 416.5,-367.416 476,-327.416 		"/>
		<polyline fill="none" stroke="#11B7D2" stroke-width="20" stroke-miterlimit="10" points="-476,-378.062 -416.5,-418.062 
			-357,-378.062 -297.5,-418.062 -238,-378.062 -178.5,-418.062 -119,-378.062 -59.5,-418.062 0,-378.062 59.5,-418.062 
			119,-378.062 178.5,-418.062 238,-378.062 297.5,-418.062 357,-378.062 416.5,-418.062 476,-378.062 		"/>
		<polyline fill="none" stroke="#11B7D2" stroke-width="20" stroke-miterlimit="10" points="-476,-428.708 -416.5,-468.708 
			-357,-428.708 -297.5,-468.708 -238,-428.708 -178.5,-468.708 -119,-428.708 -59.5,-468.708 0,-428.708 59.5,-468.708 
			119,-428.708 178.5,-468.708 238,-428.708 297.5,-468.708 357,-428.708 416.5,-468.708 476,-428.708 		"/>
		<polyline fill="none" stroke="#11B7D2" stroke-width="20" stroke-miterlimit="10" points="-476,-479.354 -416.5,-519.354 
			-357,-479.354 -297.5,-519.354 -238,-479.354 -178.5,-519.354 -119,-479.354 -59.5,-519.354 0,-479.354 59.5,-519.354 
			119,-479.354 178.5,-519.354 238,-479.354 297.5,-519.354 357,-479.354 416.5,-519.354 476,-479.354 		"/>
		<polyline fill="none" stroke="#11B7D2" stroke-width="20" stroke-miterlimit="10" points="-476,-530 -416.5,-570 -357,-530 
			-297.5,-570 -238,-530 -178.5,-570 -119,-530 -59.5,-570 0,-530 59.5,-570 119,-530 178.5,-570 238,-530 297.5,-570 357,-530 
			416.5,-570 476,-530 		"/>
		<polyline fill="none" stroke="#11B7D2" stroke-width="20" stroke-miterlimit="10" points="-476,-580.646 -416.5,-620.646 
			-357,-580.646 -297.5,-620.646 -238,-580.646 -178.5,-620.646 -119,-580.646 -59.5,-620.646 0,-580.646 59.5,-620.646 
			119,-580.646 178.5,-620.646 238,-580.646 297.5,-620.646 357,-580.646 416.5,-620.646 476,-580.646 		"/>
		<polyline fill="none" stroke="#11B7D2" stroke-width="20" stroke-miterlimit="10" points="-476,-631.292 -416.5,-671.292 
			-357,-631.292 -297.5,-671.292 -238,-631.292 -178.5,-671.292 -119,-631.292 -59.5,-671.292 0,-631.292 59.5,-671.292 
			119,-631.292 178.5,-671.292 238,-631.292 297.5,-671.292 357,-631.292 416.5,-671.292 476,-631.292 		"/>
		<polyline fill="none" stroke="#11B7D2" stroke-width="20" stroke-miterlimit="10" points="-476,-681.938 -416.5,-721.938 
			-357,-681.938 -297.5,-721.938 -238,-681.938 -178.5,-721.938 -119,-681.938 -59.5,-721.938 0,-681.938 59.5,-721.938 
			119,-681.938 178.5,-721.938 238,-681.938 297.5,-721.938 357,-681.938 416.5,-721.938 476,-681.938 		"/>
		<polyline fill="none" stroke="#11B7D2" stroke-width="20" stroke-miterlimit="10" points="-476,-732.584 -416.5,-772.584 
			-357,-732.584 -297.5,-772.584 -238,-732.584 -178.5,-772.584 -119,-732.584 -59.5,-772.584 0,-732.584 59.5,-772.584 
			119,-732.584 178.5,-772.584 238,-732.584 297.5,-772.584 357,-732.584 416.5,-772.584 476,-732.584 		"/>
	</g>
</g>
<g id="Layer_2" display="none">
	<g display="inline">
		<polyline fill="none" stroke="#11B7D2" stroke-width="20" stroke-miterlimit="10" points="9.869,-347.416 69.369,-387.416 
			128.869,-347.416 188.369,-387.416 247.869,-347.416 307.369,-387.416 366.869,-347.416 426.369,-387.416 485.869,-347.416 
			545.369,-387.416 604.869,-347.416 664.369,-387.416 723.869,-347.416 783.369,-387.416 842.869,-347.416 902.369,-387.416 
			961.869,-347.416 		"/>
		<polyline fill="none" stroke="#11B7D2" stroke-width="20" stroke-miterlimit="10" points="9.869,-398.062 69.369,-438.062 
			128.869,-398.062 188.369,-438.062 247.869,-398.062 307.369,-438.062 366.869,-398.062 426.369,-438.062 485.869,-398.062 
			545.369,-438.062 604.869,-398.062 664.369,-438.062 723.869,-398.062 783.369,-438.062 842.869,-398.062 902.369,-438.062 
			961.869,-398.062 		"/>
		<polyline fill="none" stroke="#11B7D2" stroke-width="20" stroke-miterlimit="10" points="9.869,-448.708 69.369,-488.708 
			128.869,-448.708 188.369,-488.708 247.869,-448.708 307.369,-488.708 366.869,-448.708 426.369,-488.708 485.869,-448.708 
			545.369,-488.708 604.869,-448.708 664.369,-488.708 723.869,-448.708 783.369,-488.708 842.869,-448.708 902.369,-488.708 
			961.869,-448.708 		"/>
		<polyline fill="none" stroke="#11B7D2" stroke-width="20" stroke-miterlimit="10" points="9.869,-499.354 69.369,-539.354 
			128.869,-499.354 188.369,-539.354 247.869,-499.354 307.369,-539.354 366.869,-499.354 426.369,-539.354 485.869,-499.354 
			545.369,-539.354 604.869,-499.354 664.369,-539.354 723.869,-499.354 783.369,-539.354 842.869,-499.354 902.369,-539.354 
			961.869,-499.354 		"/>
		<polyline fill="none" stroke="#11B7D2" stroke-width="20" stroke-miterlimit="10" points="9.869,-550 69.369,-590 128.869,-550 
			188.369,-590 247.869,-550 307.369,-590 366.869,-550 426.369,-590 485.869,-550 545.369,-590 604.869,-550 664.369,-590 
			723.869,-550 783.369,-590 842.869,-550 902.369,-590 961.869,-550 		"/>
		<polyline fill="none" stroke="#11B7D2" stroke-width="20" stroke-miterlimit="10" points="9.869,-600.646 69.369,-640.646 
			128.869,-600.646 188.369,-640.646 247.869,-600.646 307.369,-640.646 366.869,-600.646 426.369,-640.646 485.869,-600.646 
			545.369,-640.646 604.869,-600.646 664.369,-640.646 723.869,-600.646 783.369,-640.646 842.869,-600.646 902.369,-640.646 
			961.869,-600.646 		"/>
		<polyline fill="none" stroke="#11B7D2" stroke-width="20" stroke-miterlimit="10" points="9.869,-651.292 69.369,-691.292 
			128.869,-651.292 188.369,-691.292 247.869,-651.292 307.369,-691.292 366.869,-651.292 426.369,-691.292 485.869,-651.292 
			545.369,-691.292 604.869,-651.292 664.369,-691.292 723.869,-651.292 783.369,-691.292 842.869,-651.292 902.369,-691.292 
			961.869,-651.292 		"/>
		<polyline fill="none" stroke="#11B7D2" stroke-width="20" stroke-miterlimit="10" points="9.869,-701.938 69.369,-741.938 
			128.869,-701.938 188.369,-741.938 247.869,-701.938 307.369,-741.938 366.869,-701.938 426.369,-741.938 485.869,-701.938 
			545.369,-741.938 604.869,-701.938 664.369,-741.938 723.869,-701.938 783.369,-741.938 842.869,-701.938 902.369,-741.938 
			961.869,-701.938 		"/>
		<polyline fill="none" stroke="#11B7D2" stroke-width="20" stroke-miterlimit="10" points="9.869,-752.584 69.369,-792.584 
			128.869,-752.584 188.369,-792.584 247.869,-752.584 307.369,-792.584 366.869,-752.584 426.369,-792.584 485.869,-752.584 
			545.369,-792.584 604.869,-752.584 664.369,-792.584 723.869,-752.584 783.369,-792.584 842.869,-752.584 902.369,-792.584 
			961.869,-752.584 		"/>
		<polyline fill="none" stroke="#11B7D2" stroke-width="20" stroke-miterlimit="10" points="9.869,-803.23 69.369,-843.23 
			128.869,-803.23 188.369,-843.23 247.869,-803.23 307.369,-843.23 366.869,-803.23 426.369,-843.23 485.869,-803.23 
			545.369,-843.23 604.869,-803.23 664.369,-843.23 723.869,-803.23 783.369,-843.23 842.869,-803.23 902.369,-843.23 
			961.869,-803.23 		"/>
		<polyline fill="none" stroke="#11B7D2" stroke-width="20" stroke-miterlimit="10" points="9.869,-853.876 69.369,-893.876 
			128.869,-853.876 188.369,-893.876 247.869,-853.876 307.369,-893.876 366.869,-853.876 426.369,-893.876 485.869,-853.876 
			545.369,-893.876 604.869,-853.876 664.369,-893.876 723.869,-853.876 783.369,-893.876 842.869,-853.876 902.369,-893.876 
			961.869,-853.876 		"/>
		<polyline fill="none" stroke="#11B7D2" stroke-width="20" stroke-miterlimit="10" points="9.869,-904.522 69.369,-944.522 
			128.869,-904.522 188.369,-944.522 247.869,-904.522 307.369,-944.522 366.869,-904.522 426.369,-944.522 485.869,-904.522 
			545.369,-944.522 604.869,-904.522 664.369,-944.522 723.869,-904.522 783.369,-944.522 842.869,-904.522 902.369,-944.522 
			961.869,-904.522 		"/>
		<polyline fill="none" stroke="#11B7D2" stroke-width="20" stroke-miterlimit="10" points="9.869,-955.168 69.369,-995.168 
			128.869,-955.168 188.369,-995.168 247.869,-955.168 307.369,-995.168 366.869,-955.168 426.369,-995.168 485.869,-955.168 
			545.369,-995.168 604.869,-955.168 664.369,-995.168 723.869,-955.168 783.369,-995.168 842.869,-955.168 902.369,-995.168 
			961.869,-955.168 		"/>
		<polyline fill="none" stroke="#11B7D2" stroke-width="20" stroke-miterlimit="10" points="9.869,-1005.814 69.369,-1045.814 
			128.869,-1005.814 188.369,-1045.814 247.869,-1005.814 307.369,-1045.814 366.869,-1005.814 426.369,-1045.814 
			485.869,-1005.814 545.369,-1045.814 604.869,-1005.814 664.369,-1045.814 723.869,-1005.814 783.369,-1045.814 
			842.869,-1005.814 902.369,-1045.814 961.869,-1005.814 		"/>
		<polyline fill="none" stroke="#11B7D2" stroke-width="20" stroke-miterlimit="10" points="9.869,-1056.46 69.369,-1096.46 
			128.869,-1056.46 188.369,-1096.46 247.869,-1056.46 307.369,-1096.46 366.869,-1056.46 426.369,-1096.46 485.869,-1056.46 
			545.369,-1096.46 604.869,-1056.46 664.369,-1096.46 723.869,-1056.46 783.369,-1096.46 842.869,-1056.46 902.369,-1096.46 
			961.869,-1056.46 		"/>
		<polyline fill="none" stroke="#11B7D2" stroke-width="20" stroke-miterlimit="10" points="9.869,-1107.106 69.369,-1147.106 
			128.869,-1107.106 188.369,-1147.106 247.869,-1107.106 307.369,-1147.106 366.869,-1107.106 426.369,-1147.106 
			485.869,-1107.106 545.369,-1147.106 604.869,-1107.106 664.369,-1147.106 723.869,-1107.106 783.369,-1147.106 
			842.869,-1107.106 902.369,-1147.106 961.869,-1107.106 		"/>
		<polyline fill="none" stroke="#11B7D2" stroke-width="20" stroke-miterlimit="10" points="9.869,-1157.752 69.369,-1197.752 
			128.869,-1157.752 188.369,-1197.752 247.869,-1157.752 307.369,-1197.752 366.869,-1157.752 426.369,-1197.752 
			485.869,-1157.752 545.369,-1197.752 604.869,-1157.752 664.369,-1197.752 723.869,-1157.752 783.369,-1197.752 
			842.869,-1157.752 902.369,-1197.752 961.869,-1157.752 		"/>
		<polyline fill="none" stroke="#11B7D2" stroke-width="20" stroke-miterlimit="10" points="9.869,-1208.398 69.369,-1248.398 
			128.869,-1208.398 188.369,-1248.398 247.869,-1208.398 307.369,-1248.398 366.869,-1208.398 426.369,-1248.398 
			485.869,-1208.398 545.369,-1248.398 604.869,-1208.398 664.369,-1248.398 723.869,-1208.398 783.369,-1248.398 
			842.869,-1208.398 902.369,-1248.398 961.869,-1208.398 		"/>
		<polyline fill="none" stroke="#11B7D2" stroke-width="20" stroke-miterlimit="10" points="9.869,-1259.044 69.369,-1299.044 
			128.869,-1259.044 188.369,-1299.044 247.869,-1259.044 307.369,-1299.044 366.869,-1259.044 426.369,-1299.044 
			485.869,-1259.044 545.369,-1299.044 604.869,-1259.044 664.369,-1299.044 723.869,-1259.044 783.369,-1299.044 
			842.869,-1259.044 902.369,-1299.044 961.869,-1259.044 		"/>
		<polyline fill="none" stroke="#11B7D2" stroke-width="20" stroke-miterlimit="10" points="9.869,-1309.69 69.369,-1349.69 
			128.869,-1309.69 188.369,-1349.69 247.869,-1309.69 307.369,-1349.69 366.869,-1309.69 426.369,-1349.69 485.869,-1309.69 
			545.369,-1349.69 604.869,-1309.69 664.369,-1349.69 723.869,-1309.69 783.369,-1349.69 842.869,-1309.69 902.369,-1349.69 
			961.869,-1309.69 		"/>
		<polyline fill="none" stroke="#11B7D2" stroke-width="20" stroke-miterlimit="10" points="9.869,-1360.336 69.369,-1400.336 
			128.869,-1360.336 188.369,-1400.336 247.869,-1360.336 307.369,-1400.336 366.869,-1360.336 426.369,-1400.336 
			485.869,-1360.336 545.369,-1400.336 604.869,-1360.336 664.369,-1400.336 723.869,-1360.336 783.369,-1400.336 
			842.869,-1360.336 902.369,-1400.336 961.869,-1360.336 		"/>
		<polyline fill="none" stroke="#11B7D2" stroke-width="20" stroke-miterlimit="10" points="9.869,-1410.982 69.369,-1450.982 
			128.869,-1410.982 188.369,-1450.982 247.869,-1410.982 307.369,-1450.982 366.869,-1410.982 426.369,-1450.982 
			485.869,-1410.982 545.369,-1450.982 604.869,-1410.982 664.369,-1450.982 723.869,-1410.982 783.369,-1450.982 
			842.869,-1410.982 902.369,-1450.982 961.869,-1410.982 		"/>
		<polyline fill="none" stroke="#11B7D2" stroke-width="20" stroke-miterlimit="10" points="9.869,-1461.628 69.369,-1501.628 
			128.869,-1461.628 188.369,-1501.628 247.869,-1461.628 307.369,-1501.628 366.869,-1461.628 426.369,-1501.628 
			485.869,-1461.628 545.369,-1501.628 604.869,-1461.628 664.369,-1501.628 723.869,-1461.628 783.369,-1501.628 
			842.869,-1461.628 902.369,-1501.628 961.869,-1461.628 		"/>
		<polyline fill="none" stroke="#11B7D2" stroke-width="20" stroke-miterlimit="10" points="9.869,-1512.274 69.369,-1552.274 
			128.869,-1512.274 188.369,-1552.274 247.869,-1512.274 307.369,-1552.274 366.869,-1512.274 426.369,-1552.274 
			485.869,-1512.274 545.369,-1552.274 604.869,-1512.274 664.369,-1552.274 723.869,-1512.274 783.369,-1552.274 
			842.869,-1512.274 902.369,-1552.274 961.869,-1512.274 		"/>
		<polyline fill="none" stroke="#11B7D2" stroke-width="20" stroke-miterlimit="10" points="9.869,-1562.92 69.369,-1602.92 
			128.869,-1562.92 188.369,-1602.92 247.869,-1562.92 307.369,-1602.92 366.869,-1562.92 426.369,-1602.92 485.869,-1562.92 
			545.369,-1602.92 604.869,-1562.92 664.369,-1602.92 723.869,-1562.92 783.369,-1602.92 842.869,-1562.92 902.369,-1602.92 
			961.869,-1562.92 		"/>
		<polyline fill="none" stroke="#11B7D2" stroke-width="20" stroke-miterlimit="10" points="9.869,-1613.566 69.369,-1653.566 
			128.869,-1613.566 188.369,-1653.566 247.869,-1613.566 307.369,-1653.566 366.869,-1613.566 426.369,-1653.566 
			485.869,-1613.566 545.369,-1653.566 604.869,-1613.566 664.369,-1653.566 723.869,-1613.566 783.369,-1653.566 
			842.869,-1613.566 902.369,-1653.566 961.869,-1613.566 		"/>
		<polyline fill="none" stroke="#11B7D2" stroke-width="20" stroke-miterlimit="10" points="9.869,-1664.212 69.369,-1704.212 
			128.869,-1664.212 188.369,-1704.212 247.869,-1664.212 307.369,-1704.212 366.869,-1664.212 426.369,-1704.212 
			485.869,-1664.212 545.369,-1704.212 604.869,-1664.212 664.369,-1704.212 723.869,-1664.212 783.369,-1704.212 
			842.869,-1664.212 902.369,-1704.212 961.869,-1664.212 		"/>
	</g>
</g>
</svg>
