<svg xmlns="http://www.w3.org/2000/svg" version="1.1" xmlns:xlink="http://www.w3.org/1999/xlink" xmlns:svgjs="http://svgjs.com/svgjs" width="512px" height="512px"><svg version="1.1" id="SvgjsSvg1002" xmlns="http://www.w3.org/2000/svg" xmlns:xlink="http://www.w3.org/1999/xlink" x="0px" y="0px" width="512px" height="512px" viewBox="144 144 512 512" enable-background="new 144 144 512 512" xml:space="preserve">
<g id="SvgjsG1001" display="none">
	<g display="inline">
		<polyline fill="none" stroke="#11B7D2" stroke-width="20" stroke-miterlimit="10" points="-476,584.212 -416.5,544.212 
			-357,584.212 -297.5,544.212 -238,584.212 -178.5,544.212 -119,584.212 -59.5,544.212 0,584.212 59.5,544.212 119,584.212 
			178.5,544.212 238,584.212 297.5,544.212 357,584.212 416.5,544.212 476,584.212 		"></polyline>
		<polyline fill="none" stroke="#11B7D2" stroke-width="20" stroke-miterlimit="10" points="-476,533.566 -416.5,493.566 
			-357,533.566 -297.5,493.566 -238,533.566 -178.5,493.566 -119,533.566 -59.5,493.566 0,533.566 59.5,493.566 119,533.566 
			178.5,493.566 238,533.566 297.5,493.566 357,533.566 416.5,493.566 476,533.566 		"></polyline>
		<polyline fill="none" stroke="#11B7D2" stroke-width="20" stroke-miterlimit="10" points="-476,482.92 -416.5,442.92 -357,482.92 
			-297.5,442.92 -238,482.92 -178.5,442.92 -119,482.92 -59.5,442.92 0,482.92 59.5,442.92 119,482.92 178.5,442.92 238,482.92 
			297.5,442.92 357,482.92 416.5,442.92 476,482.92 		"></polyline>
		<polyline fill="none" stroke="#11B7D2" stroke-width="20" stroke-miterlimit="10" points="-476,432.273 -416.5,392.274 
			-357,432.273 -297.5,392.274 -238,432.273 -178.5,392.274 -119,432.273 -59.5,392.274 0,432.273 59.5,392.274 119,432.273 
			178.5,392.274 238,432.273 297.5,392.274 357,432.273 416.5,392.274 476,432.273 		"></polyline>
		<polyline fill="none" stroke="#11B7D2" stroke-width="20" stroke-miterlimit="10" points="-476,381.628 -416.5,341.628 
			-357,381.628 -297.5,341.628 -238,381.628 -178.5,341.628 -119,381.628 -59.5,341.628 0,381.628 59.5,341.628 119,381.628 
			178.5,341.628 238,381.628 297.5,341.628 357,381.628 416.5,341.628 476,381.628 		"></polyline>
		<polyline fill="none" stroke="#11B7D2" stroke-width="20" stroke-miterlimit="10" points="-476,330.982 -416.5,290.982 
			-357,330.982 -297.5,290.982 -238,330.982 -178.5,290.982 -119,330.982 -59.5,290.982 0,330.982 59.5,290.982 119,330.982 
			178.5,290.982 238,330.982 297.5,290.982 357,330.982 416.5,290.982 476,330.982 		"></polyline>
		<polyline fill="none" stroke="#11B7D2" stroke-width="20" stroke-miterlimit="10" points="-476,280.336 -416.5,240.336 
			-357,280.336 -297.5,240.336 -238,280.336 -178.5,240.336 -119,280.336 -59.5,240.336 0,280.336 59.5,240.336 119,280.336 
			178.5,240.336 238,280.336 297.5,240.336 357,280.336 416.5,240.336 476,280.336 		"></polyline>
		<polyline fill="none" stroke="#11B7D2" stroke-width="20" stroke-miterlimit="10" points="-476,229.69 -416.5,189.69 -357,229.69 
			-297.5,189.69 -238,229.69 -178.5,189.69 -119,229.69 -59.5,189.69 0,229.69 59.5,189.69 119,229.69 178.5,189.69 238,229.69 
			297.5,189.69 357,229.69 416.5,189.69 476,229.69 		"></polyline>
		<polyline fill="none" stroke="#11B7D2" stroke-width="20" stroke-miterlimit="10" points="-476,179.044 -416.5,139.044 
			-357,179.044 -297.5,139.044 -238,179.044 -178.5,139.044 -119,179.044 -59.5,139.044 0,179.044 59.5,139.044 119,179.044 
			178.5,139.044 238,179.044 297.5,139.044 357,179.044 416.5,139.044 476,179.044 		"></polyline>
		<polyline fill="none" stroke="#11B7D2" stroke-width="20" stroke-miterlimit="10" points="-476,128.398 -416.5,88.398 
			-357,128.398 -297.5,88.398 -238,128.398 -178.5,88.398 -119,128.398 -59.5,88.398 0,128.398 59.5,88.398 119,128.398 
			178.5,88.398 238,128.398 297.5,88.398 357,128.398 416.5,88.398 476,128.398 		"></polyline>
		<polyline fill="none" stroke="#11B7D2" stroke-width="20" stroke-miterlimit="10" points="-476,77.752 -416.5,37.752 -357,77.752 
			-297.5,37.752 -238,77.752 -178.5,37.752 -119,77.752 -59.5,37.752 0,77.752 59.5,37.752 119,77.752 178.5,37.752 238,77.752 
			297.5,37.752 357,77.752 416.5,37.752 476,77.752 		"></polyline>
		<polyline fill="none" stroke="#11B7D2" stroke-width="20" stroke-miterlimit="10" points="-476,27.106 -416.5,-12.894 
			-357,27.106 -297.5,-12.894 -238,27.106 -178.5,-12.894 -119,27.106 -59.5,-12.894 0,27.106 59.5,-12.894 119,27.106 
			178.5,-12.894 238,27.106 297.5,-12.894 357,27.106 416.5,-12.894 476,27.106 		"></polyline>
		<polyline fill="none" stroke="#11B7D2" stroke-width="20" stroke-miterlimit="10" points="-476,-23.54 -416.5,-63.54 -357,-23.54 
			-297.5,-63.54 -238,-23.54 -178.5,-63.54 -119,-23.54 -59.5,-63.54 0,-23.54 59.5,-63.54 119,-23.54 178.5,-63.54 238,-23.54 
			297.5,-63.54 357,-23.54 416.5,-63.54 476,-23.54 		"></polyline>
		<polyline fill="none" stroke="#11B7D2" stroke-width="20" stroke-miterlimit="10" points="-476,-74.186 -416.5,-114.186 
			-357,-74.186 -297.5,-114.186 -238,-74.186 -178.5,-114.186 -119,-74.186 -59.5,-114.186 0,-74.186 59.5,-114.186 119,-74.186 
			178.5,-114.186 238,-74.186 297.5,-114.186 357,-74.186 416.5,-114.186 476,-74.186 		"></polyline>
		<polyline fill="none" stroke="#11B7D2" stroke-width="20" stroke-miterlimit="10" points="-476,-124.832 -416.5,-164.832 
			-357,-124.832 -297.5,-164.832 -238,-124.832 -178.5,-164.832 -119,-124.832 -59.5,-164.832 0,-124.832 59.5,-164.832 
			119,-124.832 178.5,-164.832 238,-124.832 297.5,-164.832 357,-124.832 416.5,-164.832 476,-124.832 		"></polyline>
		<polyline fill="none" stroke="#11B7D2" stroke-width="20" stroke-miterlimit="10" points="-476,-175.478 -416.5,-215.478 
			-357,-175.478 -297.5,-215.478 -238,-175.478 -178.5,-215.478 -119,-175.478 -59.5,-215.478 0,-175.478 59.5,-215.478 
			119,-175.478 178.5,-215.478 238,-175.478 297.5,-215.478 357,-175.478 416.5,-215.478 476,-175.478 		"></polyline>
		<polyline fill="none" stroke="#11B7D2" stroke-width="20" stroke-miterlimit="10" points="-476,-226.124 -416.5,-266.124 
			-357,-226.124 -297.5,-266.124 -238,-226.124 -178.5,-266.124 -119,-226.124 -59.5,-266.124 0,-226.124 59.5,-266.124 
			119,-226.124 178.5,-266.124 238,-226.124 297.5,-266.124 357,-226.124 416.5,-266.124 476,-226.124 		"></polyline>
		<polyline fill="none" stroke="#11B7D2" stroke-width="20" stroke-miterlimit="10" points="-476,-276.77 -416.5,-316.77 
			-357,-276.77 -297.5,-316.77 -238,-276.77 -178.5,-316.77 -119,-276.77 -59.5,-316.77 0,-276.77 59.5,-316.77 119,-276.77 
			178.5,-316.77 238,-276.77 297.5,-316.77 357,-276.77 416.5,-316.77 476,-276.77 		"></polyline>
		<polyline fill="none" stroke="#11B7D2" stroke-width="20" stroke-miterlimit="10" points="-476,-327.416 -416.5,-367.416 
			-357,-327.416 -297.5,-367.416 -238,-327.416 -178.5,-367.416 -119,-327.416 -59.5,-367.416 0,-327.416 59.5,-367.416 
			119,-327.416 178.5,-367.416 238,-327.416 297.5,-367.416 357,-327.416 416.5,-367.416 476,-327.416 		"></polyline>
		<polyline fill="none" stroke="#11B7D2" stroke-width="20" stroke-miterlimit="10" points="-476,-378.062 -416.5,-418.062 
			-357,-378.062 -297.5,-418.062 -238,-378.062 -178.5,-418.062 -119,-378.062 -59.5,-418.062 0,-378.062 59.5,-418.062 
			119,-378.062 178.5,-418.062 238,-378.062 297.5,-418.062 357,-378.062 416.5,-418.062 476,-378.062 		"></polyline>
		<polyline fill="none" stroke="#11B7D2" stroke-width="20" stroke-miterlimit="10" points="-476,-428.708 -416.5,-468.708 
			-357,-428.708 -297.5,-468.708 -238,-428.708 -178.5,-468.708 -119,-428.708 -59.5,-468.708 0,-428.708 59.5,-468.708 
			119,-428.708 178.5,-468.708 238,-428.708 297.5,-468.708 357,-428.708 416.5,-468.708 476,-428.708 		"></polyline>
		<polyline fill="none" stroke="#11B7D2" stroke-width="20" stroke-miterlimit="10" points="-476,-479.354 -416.5,-519.354 
			-357,-479.354 -297.5,-519.354 -238,-479.354 -178.5,-519.354 -119,-479.354 -59.5,-519.354 0,-479.354 59.5,-519.354 
			119,-479.354 178.5,-519.354 238,-479.354 297.5,-519.354 357,-479.354 416.5,-519.354 476,-479.354 		"></polyline>
		<polyline fill="none" stroke="#11B7D2" stroke-width="20" stroke-miterlimit="10" points="-476,-530 -416.5,-570 -357,-530 
			-297.5,-570 -238,-530 -178.5,-570 -119,-530 -59.5,-570 0,-530 59.5,-570 119,-530 178.5,-570 238,-530 297.5,-570 357,-530 
			416.5,-570 476,-530 		"></polyline>
		<polyline fill="none" stroke="#11B7D2" stroke-width="20" stroke-miterlimit="10" points="-476,-580.646 -416.5,-620.646 
			-357,-580.646 -297.5,-620.646 -238,-580.646 -178.5,-620.646 -119,-580.646 -59.5,-620.646 0,-580.646 59.5,-620.646 
			119,-580.646 178.5,-620.646 238,-580.646 297.5,-620.646 357,-580.646 416.5,-620.646 476,-580.646 		"></polyline>
		<polyline fill="none" stroke="#11B7D2" stroke-width="20" stroke-miterlimit="10" points="-476,-631.292 -416.5,-671.292 
			-357,-631.292 -297.5,-671.292 -238,-631.292 -178.5,-671.292 -119,-631.292 -59.5,-671.292 0,-631.292 59.5,-671.292 
			119,-631.292 178.5,-671.292 238,-631.292 297.5,-671.292 357,-631.292 416.5,-671.292 476,-631.292 		"></polyline>
		<polyline fill="none" stroke="#11B7D2" stroke-width="20" stroke-miterlimit="10" points="-476,-681.938 -416.5,-721.938 
			-357,-681.938 -297.5,-721.938 -238,-681.938 -178.5,-721.938 -119,-681.938 -59.5,-721.938 0,-681.938 59.5,-721.938 
			119,-681.938 178.5,-721.938 238,-681.938 297.5,-721.938 357,-681.938 416.5,-721.938 476,-681.938 		"></polyline>
		<polyline fill="none" stroke="#11B7D2" stroke-width="20" stroke-miterlimit="10" points="-476,-732.584 -416.5,-772.584 
			-357,-732.584 -297.5,-772.584 -238,-732.584 -178.5,-772.584 -119,-732.584 -59.5,-772.584 0,-732.584 59.5,-772.584 
			119,-732.584 178.5,-772.584 238,-732.584 297.5,-772.584 357,-732.584 416.5,-772.584 476,-732.584 		"></polyline>
	</g>
</g>
<g id="SvgjsG1000" display="none">
	<g display="inline">
		<polyline fill="none" stroke="#11B7D2" stroke-width="20" stroke-miterlimit="10" points="9.869,-347.416 69.369,-387.416 
			128.869,-347.416 188.369,-387.416 247.869,-347.416 307.369,-387.416 366.869,-347.416 426.369,-387.416 485.869,-347.416 
			545.369,-387.416 604.869,-347.416 664.369,-387.416 723.869,-347.416 783.369,-387.416 842.869,-347.416 902.369,-387.416 
			961.869,-347.416 		"></polyline>
		<polyline fill="none" stroke="#11B7D2" stroke-width="20" stroke-miterlimit="10" points="9.869,-398.062 69.369,-438.062 
			128.869,-398.062 188.369,-438.062 247.869,-398.062 307.369,-438.062 366.869,-398.062 426.369,-438.062 485.869,-398.062 
			545.369,-438.062 604.869,-398.062 664.369,-438.062 723.869,-398.062 783.369,-438.062 842.869,-398.062 902.369,-438.062 
			961.869,-398.062 		"></polyline>
		<polyline fill="none" stroke="#11B7D2" stroke-width="20" stroke-miterlimit="10" points="9.869,-448.708 69.369,-488.708 
			128.869,-448.708 188.369,-488.708 247.869,-448.708 307.369,-488.708 366.869,-448.708 426.369,-488.708 485.869,-448.708 
			545.369,-488.708 604.869,-448.708 664.369,-488.708 723.869,-448.708 783.369,-488.708 842.869,-448.708 902.369,-488.708 
			961.869,-448.708 		"></polyline>
		<polyline fill="none" stroke="#11B7D2" stroke-width="20" stroke-miterlimit="10" points="9.869,-499.354 69.369,-539.354 
			128.869,-499.354 188.369,-539.354 247.869,-499.354 307.369,-539.354 366.869,-499.354 426.369,-539.354 485.869,-499.354 
			545.369,-539.354 604.869,-499.354 664.369,-539.354 723.869,-499.354 783.369,-539.354 842.869,-499.354 902.369,-539.354 
			961.869,-499.354 		"></polyline>
		<polyline fill="none" stroke="#11B7D2" stroke-width="20" stroke-miterlimit="10" points="9.869,-550 69.369,-590 128.869,-550 
			188.369,-590 247.869,-550 307.369,-590 366.869,-550 426.369,-590 485.869,-550 545.369,-590 604.869,-550 664.369,-590 
			723.869,-550 783.369,-590 842.869,-550 902.369,-590 961.869,-550 		"></polyline>
		<polyline fill="none" stroke="#11B7D2" stroke-width="20" stroke-miterlimit="10" points="9.869,-600.646 69.369,-640.646 
			128.869,-600.646 188.369,-640.646 247.869,-600.646 307.369,-640.646 366.869,-600.646 426.369,-640.646 485.869,-600.646 
			545.369,-640.646 604.869,-600.646 664.369,-640.646 723.869,-600.646 783.369,-640.646 842.869,-600.646 902.369,-640.646 
			961.869,-600.646 		"></polyline>
		<polyline fill="none" stroke="#11B7D2" stroke-width="20" stroke-miterlimit="10" points="9.869,-651.292 69.369,-691.292 
			128.869,-651.292 188.369,-691.292 247.869,-651.292 307.369,-691.292 366.869,-651.292 426.369,-691.292 485.869,-651.292 
			545.369,-691.292 604.869,-651.292 664.369,-691.292 723.869,-651.292 783.369,-691.292 842.869,-651.292 902.369,-691.292 
			961.869,-651.292 		"></polyline>
		<polyline fill="none" stroke="#11B7D2" stroke-width="20" stroke-miterlimit="10" points="9.869,-701.938 69.369,-741.938 
			128.869,-701.938 188.369,-741.938 247.869,-701.938 307.369,-741.938 366.869,-701.938 426.369,-741.938 485.869,-701.938 
			545.369,-741.938 604.869,-701.938 664.369,-741.938 723.869,-701.938 783.369,-741.938 842.869,-701.938 902.369,-741.938 
			961.869,-701.938 		"></polyline>
		<polyline fill="none" stroke="#11B7D2" stroke-width="20" stroke-miterlimit="10" points="9.869,-752.584 69.369,-792.584 
			128.869,-752.584 188.369,-792.584 247.869,-752.584 307.369,-792.584 366.869,-752.584 426.369,-792.584 485.869,-752.584 
			545.369,-792.584 604.869,-752.584 664.369,-792.584 723.869,-752.584 783.369,-792.584 842.869,-752.584 902.369,-792.584 
			961.869,-752.584 		"></polyline>
		<polyline fill="none" stroke="#11B7D2" stroke-width="20" stroke-miterlimit="10" points="9.869,-803.23 69.369,-843.23 
			128.869,-803.23 188.369,-843.23 247.869,-803.23 307.369,-843.23 366.869,-803.23 426.369,-843.23 485.869,-803.23 
			545.369,-843.23 604.869,-803.23 664.369,-843.23 723.869,-803.23 783.369,-843.23 842.869,-803.23 902.369,-843.23 
			961.869,-803.23 		"></polyline>
		<polyline fill="none" stroke="#11B7D2" stroke-width="20" stroke-miterlimit="10" points="9.869,-853.876 69.369,-893.876 
			128.869,-853.876 188.369,-893.876 247.869,-853.876 307.369,-893.876 366.869,-853.876 426.369,-893.876 485.869,-853.876 
			545.369,-893.876 604.869,-853.876 664.369,-893.876 723.869,-853.876 783.369,-893.876 842.869,-853.876 902.369,-893.876 
			961.869,-853.876 		"></polyline>
		<polyline fill="none" stroke="#11B7D2" stroke-width="20" stroke-miterlimit="10" points="9.869,-904.522 69.369,-944.522 
			128.869,-904.522 188.369,-944.522 247.869,-904.522 307.369,-944.522 366.869,-904.522 426.369,-944.522 485.869,-904.522 
			545.369,-944.522 604.869,-904.522 664.369,-944.522 723.869,-904.522 783.369,-944.522 842.869,-904.522 902.369,-944.522 
			961.869,-904.522 		"></polyline>
		<polyline fill="none" stroke="#11B7D2" stroke-width="20" stroke-miterlimit="10" points="9.869,-955.168 69.369,-995.168 
			128.869,-955.168 188.369,-995.168 247.869,-955.168 307.369,-995.168 366.869,-955.168 426.369,-995.168 485.869,-955.168 
			545.369,-995.168 604.869,-955.168 664.369,-995.168 723.869,-955.168 783.369,-995.168 842.869,-955.168 902.369,-995.168 
			961.869,-955.168 		"></polyline>
		<polyline fill="none" stroke="#11B7D2" stroke-width="20" stroke-miterlimit="10" points="9.869,-1005.814 69.369,-1045.814 
			128.869,-1005.814 188.369,-1045.814 247.869,-1005.814 307.369,-1045.814 366.869,-1005.814 426.369,-1045.814 
			485.869,-1005.814 545.369,-1045.814 604.869,-1005.814 664.369,-1045.814 723.869,-1005.814 783.369,-1045.814 
			842.869,-1005.814 902.369,-1045.814 961.869,-1005.814 		"></polyline>
		<polyline fill="none" stroke="#11B7D2" stroke-width="20" stroke-miterlimit="10" points="9.869,-1056.46 69.369,-1096.46 
			128.869,-1056.46 188.369,-1096.46 247.869,-1056.46 307.369,-1096.46 366.869,-1056.46 426.369,-1096.46 485.869,-1056.46 
			545.369,-1096.46 604.869,-1056.46 664.369,-1096.46 723.869,-1056.46 783.369,-1096.46 842.869,-1056.46 902.369,-1096.46 
			961.869,-1056.46 		"></polyline>
		<polyline fill="none" stroke="#11B7D2" stroke-width="20" stroke-miterlimit="10" points="9.869,-1107.106 69.369,-1147.106 
			128.869,-1107.106 188.369,-1147.106 247.869,-1107.106 307.369,-1147.106 366.869,-1107.106 426.369,-1147.106 
			485.869,-1107.106 545.369,-1147.106 604.869,-1107.106 664.369,-1147.106 723.869,-1107.106 783.369,-1147.106 
			842.869,-1107.106 902.369,-1147.106 961.869,-1107.106 		"></polyline>
		<polyline fill="none" stroke="#11B7D2" stroke-width="20" stroke-miterlimit="10" points="9.869,-1157.752 69.369,-1197.752 
			128.869,-1157.752 188.369,-1197.752 247.869,-1157.752 307.369,-1197.752 366.869,-1157.752 426.369,-1197.752 
			485.869,-1157.752 545.369,-1197.752 604.869,-1157.752 664.369,-1197.752 723.869,-1157.752 783.369,-1197.752 
			842.869,-1157.752 902.369,-1197.752 961.869,-1157.752 		"></polyline>
		<polyline fill="none" stroke="#11B7D2" stroke-width="20" stroke-miterlimit="10" points="9.869,-1208.398 69.369,-1248.398 
			128.869,-1208.398 188.369,-1248.398 247.869,-1208.398 307.369,-1248.398 366.869,-1208.398 426.369,-1248.398 
			485.869,-1208.398 545.369,-1248.398 604.869,-1208.398 664.369,-1248.398 723.869,-1208.398 783.369,-1248.398 
			842.869,-1208.398 902.369,-1248.398 961.869,-1208.398 		"></polyline>
		<polyline fill="none" stroke="#11B7D2" stroke-width="20" stroke-miterlimit="10" points="9.869,-1259.044 69.369,-1299.044 
			128.869,-1259.044 188.369,-1299.044 247.869,-1259.044 307.369,-1299.044 366.869,-1259.044 426.369,-1299.044 
			485.869,-1259.044 545.369,-1299.044 604.869,-1259.044 664.369,-1299.044 723.869,-1259.044 783.369,-1299.044 
			842.869,-1259.044 902.369,-1299.044 961.869,-1259.044 		"></polyline>
		<polyline fill="none" stroke="#11B7D2" stroke-width="20" stroke-miterlimit="10" points="9.869,-1309.69 69.369,-1349.69 
			128.869,-1309.69 188.369,-1349.69 247.869,-1309.69 307.369,-1349.69 366.869,-1309.69 426.369,-1349.69 485.869,-1309.69 
			545.369,-1349.69 604.869,-1309.69 664.369,-1349.69 723.869,-1309.69 783.369,-1349.69 842.869,-1309.69 902.369,-1349.69 
			961.869,-1309.69 		"></polyline>
		<polyline fill="none" stroke="#11B7D2" stroke-width="20" stroke-miterlimit="10" points="9.869,-1360.336 69.369,-1400.336 
			128.869,-1360.336 188.369,-1400.336 247.869,-1360.336 307.369,-1400.336 366.869,-1360.336 426.369,-1400.336 
			485.869,-1360.336 545.369,-1400.336 604.869,-1360.336 664.369,-1400.336 723.869,-1360.336 783.369,-1400.336 
			842.869,-1360.336 902.369,-1400.336 961.869,-1360.336 		"></polyline>
		<polyline fill="none" stroke="#11B7D2" stroke-width="20" stroke-miterlimit="10" points="9.869,-1410.982 69.369,-1450.982 
			128.869,-1410.982 188.369,-1450.982 247.869,-1410.982 307.369,-1450.982 366.869,-1410.982 426.369,-1450.982 
			485.869,-1410.982 545.369,-1450.982 604.869,-1410.982 664.369,-1450.982 723.869,-1410.982 783.369,-1450.982 
			842.869,-1410.982 902.369,-1450.982 961.869,-1410.982 		"></polyline>
		<polyline fill="none" stroke="#11B7D2" stroke-width="20" stroke-miterlimit="10" points="9.869,-1461.628 69.369,-1501.628 
			128.869,-1461.628 188.369,-1501.628 247.869,-1461.628 307.369,-1501.628 366.869,-1461.628 426.369,-1501.628 
			485.869,-1461.628 545.369,-1501.628 604.869,-1461.628 664.369,-1501.628 723.869,-1461.628 783.369,-1501.628 
			842.869,-1461.628 902.369,-1501.628 961.869,-1461.628 		"></polyline>
		<polyline fill="none" stroke="#11B7D2" stroke-width="20" stroke-miterlimit="10" points="9.869,-1512.274 69.369,-1552.274 
			128.869,-1512.274 188.369,-1552.274 247.869,-1512.274 307.369,-1552.274 366.869,-1512.274 426.369,-1552.274 
			485.869,-1512.274 545.369,-1552.274 604.869,-1512.274 664.369,-1552.274 723.869,-1512.274 783.369,-1552.274 
			842.869,-1512.274 902.369,-1552.274 961.869,-1512.274 		"></polyline>
		<polyline fill="none" stroke="#11B7D2" stroke-width="20" stroke-miterlimit="10" points="9.869,-1562.92 69.369,-1602.92 
			128.869,-1562.92 188.369,-1602.92 247.869,-1562.92 307.369,-1602.92 366.869,-1562.92 426.369,-1602.92 485.869,-1562.92 
			545.369,-1602.92 604.869,-1562.92 664.369,-1602.92 723.869,-1562.92 783.369,-1602.92 842.869,-1562.92 902.369,-1602.92 
			961.869,-1562.92 		"></polyline>
		<polyline fill="none" stroke="#11B7D2" stroke-width="20" stroke-miterlimit="10" points="9.869,-1613.566 69.369,-1653.566 
			128.869,-1613.566 188.369,-1653.566 247.869,-1613.566 307.369,-1653.566 366.869,-1613.566 426.369,-1653.566 
			485.869,-1613.566 545.369,-1653.566 604.869,-1613.566 664.369,-1653.566 723.869,-1613.566 783.369,-1653.566 
			842.869,-1613.566 902.369,-1653.566 961.869,-1613.566 		"></polyline>
		<polyline fill="none" stroke="#11B7D2" stroke-width="20" stroke-miterlimit="10" points="9.869,-1664.212 69.369,-1704.212 
			128.869,-1664.212 188.369,-1704.212 247.869,-1664.212 307.369,-1704.212 366.869,-1664.212 426.369,-1704.212 
			485.869,-1664.212 545.369,-1704.212 604.869,-1664.212 664.369,-1704.212 723.869,-1664.212 783.369,-1704.212 
			842.869,-1664.212 902.369,-1704.212 961.869,-1664.212 		"></polyline>
	</g>
</g>
<g>
	<path fill="#11B7D2" d="M399.999,144C258.614,144,144,258.615,144,400s114.614,256,255.999,256
		c37.701,0,73.497-8.154,105.726-22.788l-33.435-53.693c-20.326,7.569-42.319,11.716-65.283,11.716
		c-103.346,0.005-187.118-83.771-187.118-187.118c0-103.344,83.772-187.12,187.118-187.12c103.343,0,187.114,83.771,187.104,187.12
		c0,52.671-21.769,100.249-56.787,134.252l32.893,52.824C622.844,544.305,656,476.029,656,400C656,258.615,541.385,144,399.999,144z
		"></path>
	<path fill="#11B7D2" d="M407.007,293.96c-60.843,0-110.169,49.321-110.169,110.156c0,60.837,49.326,110.156,110.169,110.156
		c7.937,0,15.675-0.847,23.136-2.442l-38.262-61.445l65.33-40.675l37.784,60.681c13.913-18.442,22.167-41.394,22.167-66.274
		C517.162,343.278,467.838,293.96,407.007,293.96z"></path>
	<path fill="#FFFFFF" d="M594.111,404.116c0.01-103.349-83.762-187.121-187.104-187.12c-103.346,0-187.118,83.776-187.118,187.12
		c0,103.348,83.772,187.123,187.118,187.118c22.964,0,44.957-4.146,65.283-11.716l33.435,53.693
		c23.64-10.733,45.35-24.966,64.492-42.02l-32.893-52.824C572.343,504.365,594.111,456.787,594.111,404.116z M457.211,409.71
		l-65.33,40.675l38.262,61.445c-7.461,1.596-15.199,2.442-23.136,2.442c-60.843,0-110.169-49.319-110.169-110.156
		c0-60.835,49.326-110.156,110.169-110.156c60.831,0,110.155,49.318,110.155,110.156c0,24.881-8.254,47.832-22.167,66.274
		L457.211,409.71z"></path>
</g>
</svg><style>@media (prefers-color-scheme: light) { :root { filter: none; } }
</style></svg>